<?xml version="1.0" encoding="UTF-8"?>
<!DOCTYPE svg PUBLIC "-//W3C//DTD SVG 1.1//EN" "http://www.w3.org/Graphics/SVG/1.1/DTD/svg11.dtd">
<!-- Creator: CorelDRAW X8 -->
<svg xmlns="http://www.w3.org/2000/svg" xml:space="preserve" width="5.02777in" height="1.83333in" version="1.1" style="shape-rendering:geometricPrecision; text-rendering:geometricPrecision; image-rendering:optimizeQuality; fill-rule:evenodd; clip-rule:evenodd"
viewBox="0 0 4238 1545"
 xmlns:xlink="http://www.w3.org/1999/xlink">
 <defs>
  <style type="text/css">
   <![CDATA[
    .str0 {stroke:#FEFEFE;stroke-width:17.5594}
    .fil4 {fill:none}
    .fil2 {fill:#FEFEFE}
    .fil1 {fill:#2D58A8}
    .fil0 {fill:#FF5A00}
    .fil3 {fill:#FEFEFE;fill-rule:nonzero}
   ]]>
  </style>
      <clipPath id="id0">
       <path d="M79 14l1566 0 0 1517 -1566 0 0 -1517z"/>
      </clipPath>
 </defs>
 <g id="Layer_x0020_1">
  <metadata id="CorelCorpID_0Corel-Layer"/>
  <g id="_2205780978560">
   <polygon class="fil0" points="0,0 4238,0 4238,1545 0,1545 "/>
   <g>
    <g>
     <g style="clip-path:url(#id0)">
      <image x="79" y="14" width="1566" height="1517" xlink:href="8448-logo-c6c84aab-09b5-44db-81dd-2f88109a90cd_Images\8448-logo-c6c84aab-09b5-44db-81dd-2f88109a90cd_ImgID1.png"/>
     </g>
    </g>
    <g>
     <path class="fil1" d="M430 895c86,118 245,143 235,172 -11,36 -130,-14 -218,-99 -74,-72 -126,-165 -142,-150 -37,36 24,137 114,216 55,61 163,97 161,115 -3,18 -204,-68 -270,-173l-30 -50c-24,-40 -48,27 9,114 112,146 292,177 281,201 -5,11 -96,-31 -157,-52 -113,-39 105,171 412,167 157,-2 477,-61 618,-467 -191,117 -515,4 -658,-72 -40,-17 -176,-90 -201,-50 -40,63 141,142 188,159 41,14 108,26 82,55 -27,28 -258,-5 -382,-164 -27,-29 -72,-97 -99,-74 -27,23 19,104 57,152z"/>
     <path class="fil1" d="M1294 651c-86,-118 -245,-144 -236,-173 12,-36 130,14 218,100 75,72 127,164 142,149 38,-35 -23,-137 -113,-216 -55,-60 -164,-96 -161,-114 3,-19 204,68 270,173l30 49c24,41 47,-26 -9,-114 -67,-111 -292,-177 -281,-201 5,-11 96,32 156,52 114,39 -104,-171 -411,-167 -157,2 -477,62 -618,467 191,-117 515,-3 658,72 40,18 176,90 201,50 40,-63 -142,-142 -188,-158 -41,-15 -108,-27 -82,-55 26,-29 257,4 382,164 27,28 72,96 99,73 27,-22 -19,-103 -57,-151z"/>
     <path class="fil2" d="M920 275c-53,47 -25,40 -14,95 11,53 -12,77 -57,81l10 -173 -53 0c-8,31 -10,69 -16,100 -9,48 -18,60 -49,63 -30,2 7,-108 3,-161 -1,-13 -27,-10 -60,-7 -8,40 -32,150 -18,190 24,68 94,46 138,28 145,101 237,-155 116,-216z"/>
     <path class="fil2" d="M1021 1209c-80,10 -123,11 -123,-12 0,-23 39,-1 48,-32 14,-31 -18,-31 -10,-62 9,-30 117,16 128,-9 16,-36 -80,-54 -107,-55 -102,-1 -87,55 -99,102 -131,159 180,169 163,68z"/>
    </g>
   </g>
   <g>
    <path class="fil3" d="M1784 1389l0 -83c0,-1 0,-2 -1,-3 -1,-1 -2,-2 -4,-2l0 -2 55 0c12,0 21,1 27,4 10,4 16,10 21,19 3,7 5,16 5,25 0,17 -5,30 -16,39 -4,4 -9,6 -15,8 -6,1 -13,2 -22,2l-55 0 0 -2c2,-1 3,-1 4,-2 1,-1 1,-2 1,-3zm21 -9l27 0c9,0 15,-1 19,-3 10,-5 14,-15 14,-30 0,-10 -2,-18 -7,-24 -3,-3 -6,-5 -10,-6 -4,-2 -9,-2 -16,-2l-27 0 0 65zm123 -27l0 27 63 0c1,0 2,0 3,-1 1,0 1,-2 2,-3l2 0 0 25 -2 0c-1,-2 -1,-3 -2,-4 -1,0 -2,-1 -3,-1l-89 0 0 -2c2,-1 3,-1 4,-2 0,-1 1,-2 1,-3l0 -83c0,-1 -1,-2 -1,-3 -1,-1 -2,-2 -4,-2l0 -2 87 0c1,0 3,-1 3,-1 1,-1 2,-2 2,-4l2 0 0 25 -2 0c0,-1 -1,-3 -2,-3 0,-1 -2,-1 -3,-1l-61 0 0 23 40 0c1,0 2,0 3,-1 1,-1 1,-2 2,-4l2 0 0 25 -2 0c-1,-2 -1,-3 -2,-4 -1,0 -2,-1 -3,-1l-40 0zm157 18l-44 0 -7 14c-1,2 -1,3 -1,5 0,2 1,3 4,4l0 2 -32 0 0 -2c2,0 3,-1 4,-2 1,-1 3,-3 4,-6l36 -75c1,-2 2,-4 2,-5 0,-3 -2,-4 -5,-5l0 -2 35 0 0 2c-3,1 -4,2 -4,4 0,2 0,3 1,5l37 75c2,3 3,5 4,7 2,1 3,2 5,2l0 2 -36 0 0 -2c3,-1 5,-2 5,-4 0,-2 -1,-3 -2,-5l-6 -14zm-6 -13l-16 -35 -16 35 32 0zm79 22l60 0c2,0 3,0 4,-1 1,0 1,-2 2,-3l2 0 0 25 -2 0c-1,-2 -1,-3 -2,-4 -1,0 -2,-1 -4,-1l-85 0 0 -2c1,-1 2,-1 3,-2 1,-1 1,-2 1,-3l0 -83c0,-1 0,-2 -1,-3 -1,-1 -2,-2 -3,-2l0 -2 30 0 0 2c-2,0 -3,1 -4,2 0,1 -1,2 -1,3l0 74zm172 -73l-12 23 -2 -1c0,-1 0,-1 0,-1 0,-2 -1,-4 -4,-6 -9,-6 -19,-9 -30,-9 -5,0 -10,1 -13,2 -3,1 -5,3 -7,5 -2,2 -3,4 -3,6 0,4 2,6 7,7 2,1 7,2 15,3l11 1c6,0 12,1 16,3 4,1 8,3 11,5 3,2 6,5 8,9 2,4 2,8 2,12 0,7 -2,13 -6,19 -4,4 -10,8 -19,10 -6,2 -13,3 -20,3 -13,0 -26,-3 -38,-9 -3,-1 -5,-2 -5,-2 -1,0 -2,0 -3,1l-2 -1 10 -23 3 1c0,0 0,0 0,0 0,3 1,5 3,6 3,3 8,6 14,8 6,2 13,3 18,3 7,0 12,-2 17,-4 2,-1 4,-2 6,-4 1,-2 2,-5 2,-7 0,-3 -2,-5 -5,-7 -3,-1 -8,-1 -15,-2l-11 -1c-8,-1 -13,-2 -16,-3 -3,0 -6,-1 -9,-3 -4,-2 -8,-5 -10,-10 -2,-3 -4,-8 -4,-13 0,-8 3,-15 9,-20 7,-8 19,-11 33,-11 7,0 13,1 18,2 5,1 12,3 20,7 3,1 5,1 5,1 1,0 2,0 4,-1l2 1zm55 82l0 -83c0,-1 0,-2 -1,-3 0,-1 -1,-2 -3,-2l0 -2 30 0 0 2c-1,0 -3,1 -3,2 -1,1 -1,2 -1,3l0 83c0,1 0,2 1,3 1,1 2,2 3,2l0 2 -30 0 0 -2c2,-1 3,-1 3,-2 1,-1 1,-2 1,-3zm68 -60l0 60c0,1 0,2 1,3 1,1 2,1 3,2l0 2 -28 0 0 -2c2,-1 3,-1 3,-2 1,-1 1,-2 1,-3l0 -83c0,-1 0,-2 -1,-3 0,-1 -1,-2 -3,-2l0 -2 33 0 0 2c-2,0 -3,2 -3,3 0,1 1,3 2,4l54 56 0 -58c0,-1 0,-2 -1,-3 -1,-1 -2,-2 -4,-2l0 -2 29 0 0 2c-2,0 -3,1 -4,2 0,1 -1,2 -1,3l0 83c0,1 1,2 1,3 1,1 2,1 4,2l0 2 -31 0 0 -2c2,0 3,-2 3,-3 0,-1 -1,-3 -3,-5l-55 -57zm166 25l0 35c0,1 0,2 1,3 1,1 2,2 4,2l0 2 -31 0 0 -2c2,-1 3,-1 4,-2 0,-1 1,-2 1,-3l0 -83c0,-1 -1,-2 -1,-3 -1,-1 -2,-2 -4,-2l0 -2 86 0c2,0 3,-1 4,-1 1,-1 1,-2 2,-4l2 0 0 25 -2 0c-1,-1 -1,-3 -2,-3 -1,-1 -2,-1 -4,-1l-60 0 0 23 39 0c2,0 3,0 4,-1 1,-1 1,-2 2,-4l2 0 0 25 -2 0c-1,-2 -1,-3 -2,-3 -1,-1 -2,-1 -4,-1l-39 0zm132 -57c17,0 30,4 40,14 11,9 16,22 16,37 0,9 -2,18 -8,26 -9,16 -26,24 -48,24 -17,0 -30,-5 -40,-14 -6,-5 -10,-11 -13,-17 -2,-6 -3,-13 -3,-20 0,-9 2,-18 7,-26 10,-16 26,-24 49,-24zm0 16c-10,0 -17,3 -24,9 -7,6 -11,15 -11,25 0,11 4,20 11,26 7,6 15,9 24,9 9,0 17,-3 23,-9 4,-3 7,-7 9,-12 2,-4 2,-9 2,-13 0,-11 -3,-20 -11,-26 -6,-6 -14,-8 -23,-9zm125 -16c17,0 31,4 41,14 10,9 15,22 15,37 0,9 -2,18 -7,26 -10,16 -26,24 -49,24 -17,0 -30,-5 -40,-14 -6,-5 -10,-11 -12,-17 -3,-6 -4,-13 -4,-20 0,-9 3,-18 8,-26 9,-16 25,-24 48,-24zm0 16c-9,0 -17,3 -23,9 -8,6 -11,15 -11,25 0,11 3,20 11,26 6,6 14,9 23,9 10,0 17,-3 24,-9 3,-3 6,-7 8,-12 2,-4 3,-9 3,-13 0,-11 -4,-20 -11,-26 -7,-6 -14,-8 -24,-9zm76 76l0 -83c0,-1 0,-2 -1,-3 0,-1 -2,-2 -3,-2l0 -2 54 0c12,0 21,1 28,4 9,4 16,10 20,19 3,7 5,16 5,25 0,17 -5,30 -15,39 -5,4 -10,6 -16,8 -5,1 -13,2 -22,2l-54 0 0 -2c1,-1 3,-1 3,-2 1,-1 1,-2 1,-3zm22 -9l26 0c9,0 15,-1 20,-3 9,-5 13,-15 13,-30 0,-10 -2,-18 -7,-24 -3,-3 -6,-5 -10,-6 -4,-2 -9,-2 -16,-2l-26 0 0 65zm159 -23l0 32c0,1 0,2 1,3 1,1 2,2 3,2l0 2 -30 0 0 -2c2,-1 3,-1 4,-2 0,-1 1,-2 1,-3l0 -83c0,-1 -1,-2 -1,-3 -1,-1 -2,-2 -4,-2l0 -2 61 0c7,0 13,0 17,1 4,1 8,3 11,5 3,2 6,6 8,10 2,4 2,8 2,13 0,6 -1,12 -5,17 -3,4 -7,7 -12,9 -5,2 -12,3 -21,3l-35 0zm0 -16l33 0c6,0 11,-1 13,-3 2,0 3,-2 4,-4 1,-2 2,-4 2,-6 0,-3 -1,-5 -2,-7 -1,-2 -2,-3 -4,-4 -2,-2 -7,-2 -13,-2l-33 0 0 26zm112 15l0 33c0,1 0,2 1,3 1,1 2,2 4,2l0 2 -31 0 0 -2c2,-1 3,-1 4,-2 0,-1 1,-2 1,-3l0 -83c0,-1 -1,-2 -1,-3 -1,-1 -2,-2 -4,-2l0 -2 61 0c8,0 14,0 18,1 4,1 8,2 11,4 4,3 7,6 9,11 2,4 2,8 2,13 0,16 -8,25 -26,28l19 27c3,4 6,7 7,9 2,1 4,2 6,2l0 2 -36 0 0 -2c3,0 4,-1 4,-3 0,0 -1,-3 -3,-6l-20 -29 -26 0zm0 -16l33 0c5,0 8,0 10,0 2,0 4,-1 6,-2 3,-2 5,-5 5,-10 0,-6 -2,-9 -5,-11 -2,-1 -4,-2 -6,-2 -2,0 -5,0 -10,0l-33 0 0 25zm144 -43c17,0 31,4 41,14 10,9 16,22 16,37 0,9 -3,18 -8,26 -10,16 -26,24 -49,24 -17,0 -30,-5 -40,-14 -5,-5 -9,-11 -12,-17 -3,-6 -4,-13 -4,-20 0,-9 3,-18 8,-26 9,-16 26,-24 48,-24zm0 16c-9,0 -17,3 -23,9 -7,6 -11,15 -11,25 0,11 4,20 11,26 6,6 14,9 23,9 10,0 18,-3 24,-9 4,-3 6,-7 8,-12 2,-4 3,-9 3,-13 0,-11 -4,-20 -11,-26 -6,-6 -14,-8 -24,-9zm76 76l0 -83c0,-1 0,-2 -1,-3 0,-1 -1,-2 -3,-2l0 -2 54 0c12,0 21,1 28,4 9,4 16,10 20,19 4,7 5,16 5,25 0,17 -5,30 -15,39 -4,4 -10,6 -15,8 -6,1 -14,2 -23,2l-54 0 0 -2c2,-1 3,-1 3,-2 1,-1 1,-2 1,-3zm22 -9l27 0c8,0 15,-1 19,-3 9,-5 14,-15 14,-30 0,-10 -3,-18 -8,-24 -3,-3 -6,-5 -10,-6 -4,-2 -9,-2 -15,-2l-27 0 0 65zm196 -74l0 55c0,10 -2,18 -6,23 -7,9 -21,14 -42,14 -16,0 -28,-2 -36,-7 -5,-3 -8,-7 -10,-12 -2,-5 -3,-11 -3,-18l0 -55c0,-1 0,-2 -1,-3 0,-1 -2,-2 -3,-2l0 -2 30 0 0 2c-1,0 -3,1 -3,2 -1,1 -1,2 -1,3l0 49c0,6 0,10 1,12 0,3 1,5 3,7 5,5 12,8 23,8 12,0 19,-3 24,-8 2,-2 3,-4 3,-7 1,-2 1,-6 1,-12l0 -49c0,-1 0,-2 -1,-3 0,-1 -2,-2 -3,-2l0 -2 28 0 0 2c-1,0 -2,1 -3,2 -1,1 -1,2 -1,3zm115 57l13 20 -2 1c-1,-1 -2,-1 -3,-1 -1,0 -3,1 -7,3 -8,5 -15,8 -21,10 -5,1 -12,2 -20,2 -15,0 -28,-4 -38,-11 -5,-4 -10,-9 -13,-16 -4,-7 -6,-15 -6,-24 0,-11 3,-22 10,-30 11,-14 26,-20 47,-20 8,0 15,1 20,2 6,2 13,5 21,10 4,2 6,3 7,3 1,0 2,0 3,-2l2 2 -13 20 -2 -1c0,-1 0,-2 0,-2 0,-2 -1,-3 -2,-4 -1,-1 -3,-3 -6,-4 -9,-5 -18,-8 -27,-8 -11,0 -20,3 -27,9 -8,6 -12,15 -12,25 0,11 4,20 12,26 7,6 16,9 27,9 9,0 18,-3 27,-8 3,-1 5,-3 6,-4 1,-1 2,-3 2,-4 0,0 0,-1 0,-2l2 -1zm79 -48l0 74c0,1 1,2 1,3 1,1 2,1 4,2l0 2 -31 0 0 -2c2,-1 3,-1 4,-2 1,-1 1,-2 1,-3l0 -74 -30 0c-2,0 -3,0 -4,1 0,0 -1,2 -1,3l-3 0 0 -25 3 0c0,2 1,3 1,4 1,0 2,1 4,1l81 0c2,0 3,-1 4,-1 0,-1 1,-2 2,-4l2 0 0 25 -2 0c-1,-1 -2,-3 -2,-3 -1,-1 -2,-1 -4,-1l-30 0zm139 -8l-11 23 -2 -1c0,-1 0,-1 0,-1 0,-2 -2,-4 -4,-6 -9,-6 -19,-9 -30,-9 -5,0 -10,1 -14,2 -3,1 -5,3 -7,5 -1,2 -2,4 -2,6 0,4 2,6 6,7 3,1 8,2 15,3l11 1c7,0 13,1 17,3 4,1 7,3 11,5 3,2 5,5 7,9 2,4 3,8 3,12 0,7 -2,13 -7,19 -4,4 -10,8 -18,10 -6,2 -13,3 -20,3 -13,0 -26,-3 -39,-9 -2,-1 -4,-2 -4,-2 -1,0 -2,0 -3,1l-2 -1 10 -23 2 1c0,0 0,0 0,0 0,3 1,5 3,6 3,3 8,6 15,8 6,2 12,3 18,3 6,0 12,-2 16,-4 3,-1 5,-2 6,-4 2,-2 2,-5 2,-7 0,-3 -1,-5 -5,-7 -2,-1 -7,-1 -14,-2l-12 -1c-7,-1 -12,-2 -15,-3 -3,0 -6,-1 -9,-3 -5,-2 -8,-5 -11,-10 -2,-3 -3,-8 -3,-13 0,-8 3,-15 9,-20 7,-8 18,-11 33,-11 6,0 12,1 18,2 5,1 12,3 20,7 2,1 4,1 5,1 1,0 2,0 3,-1l2 1z"/>
    <path class="fil3" d="M2172 384l-12 -30c-8,-18 -18,-30 -30,-36 -21,-11 -31,-25 -31,-42 0,-37 56,-56 168,-56 56,0 99,5 128,14 10,3 18,8 24,15 6,7 9,15 9,23 0,8 -2,13 -5,17 -2,4 -10,11 -23,22 -7,6 -11,13 -11,20 0,10 6,27 17,50l25 54c11,24 20,39 24,46 5,6 11,10 17,10 7,0 12,-4 17,-12 5,-7 11,-22 19,-44l21 -62c6,-17 8,-30 8,-39 0,-12 -6,-19 -18,-23 -24,-8 -37,-22 -37,-42 0,-18 10,-30 29,-38 19,-8 50,-11 93,-11 29,0 51,3 67,9 22,9 32,23 32,42 0,9 -2,16 -5,22 -4,6 -12,14 -24,25 -8,7 -14,14 -18,21 -5,8 -11,23 -20,47l-77 204c-38,95 -61,151 -69,169 -8,18 -16,35 -24,49 -7,10 -14,18 -22,22 -8,4 -18,6 -31,6 -18,0 -32,-3 -43,-11 -10,-8 -19,-20 -27,-38l-86 -206c-5,-11 -9,-18 -11,-21 -2,-3 -5,-4 -9,-4 -7,0 -12,3 -16,11 -5,7 -13,26 -25,56l-60 148c-11,27 -21,45 -32,53 -10,9 -25,13 -45,13 -19,0 -33,-4 -44,-13 -11,-9 -20,-24 -29,-46l-161 -413c-7,-16 -11,-26 -14,-30 -2,-3 -10,-8 -23,-15 -15,-7 -23,-20 -23,-38 0,-41 51,-62 153,-62 53,0 91,4 114,11 23,7 34,22 34,43 0,7 -1,12 -2,15 -1,3 -5,10 -13,20 -3,6 -5,13 -5,21 0,15 10,45 29,91l18 42c8,18 13,28 15,32 3,4 7,5 11,5 12,0 23,-16 35,-48l18 -50c2,-4 2,-6 2,-8 0,-3 0,-6 -2,-10zm747 6c51,0 94,13 129,39 19,13 32,29 39,47 8,17 11,42 11,73l0 65c0,45 3,74 9,88 3,6 7,10 10,12 2,2 9,3 18,5 9,1 14,8 14,18 0,14 -6,29 -17,44 -11,15 -26,28 -44,38 -22,13 -44,20 -68,20 -31,0 -55,-11 -73,-32 -6,-8 -12,-11 -17,-11 -6,0 -14,3 -23,11 -30,21 -63,32 -100,32 -38,0 -69,-9 -93,-25 -15,-11 -27,-25 -36,-42 -10,-18 -14,-36 -14,-55 0,-30 12,-57 37,-80 38,-37 95,-56 172,-56 16,0 27,-2 32,-5 4,-3 6,-11 6,-23 0,-31 -3,-54 -10,-68 -6,-13 -17,-21 -31,-21 -9,0 -17,3 -24,8 -7,6 -15,15 -25,29 -26,37 -53,56 -82,56 -14,0 -26,-4 -35,-13 -9,-8 -13,-19 -13,-33 0,-14 5,-28 17,-42 11,-14 26,-26 45,-37 53,-28 108,-42 166,-42zm-29 254c-13,0 -24,5 -34,15 -9,11 -14,23 -14,38 0,14 3,25 10,34 7,9 15,13 27,13 23,0 35,-20 35,-59 0,-16 -2,-27 -5,-33 -4,-5 -10,-8 -19,-8zm545 -172l55 0c9,0 15,1 19,4 4,3 6,7 5,14l-3 52c-1,11 -3,17 -5,20 -3,3 -9,4 -18,4 -2,0 -7,0 -14,-1 -5,0 -10,0 -13,0 -13,0 -21,4 -25,12 -5,8 -7,23 -7,46 0,30 3,56 10,77 3,9 7,16 12,20 5,4 13,8 24,11 26,8 39,22 39,43 0,22 -15,37 -45,47 -30,10 -79,15 -148,15 -101,0 -152,-21 -152,-61 0,-10 3,-17 7,-22 4,-4 13,-10 28,-16 15,-7 24,-20 28,-39 5,-29 7,-59 7,-92 0,-15 -3,-25 -8,-30 -5,-6 -14,-9 -27,-9 -16,0 -26,0 -31,-2 -4,-2 -6,-5 -6,-12l4 -55c0,-9 2,-14 4,-17 3,-2 10,-3 21,-4 11,0 16,-6 16,-16 0,-4 -4,-13 -11,-28 -14,-24 -21,-48 -21,-72 0,-36 13,-65 37,-87 36,-33 88,-50 155,-50 55,0 99,13 132,39 25,20 38,43 38,70 0,19 -6,35 -19,48 -12,13 -28,19 -47,19 -21,0 -41,-7 -60,-22 -5,-4 -16,-15 -33,-34 -13,-14 -25,-21 -38,-21 -8,0 -15,3 -21,9 -6,6 -9,13 -9,22 0,23 22,47 66,74 13,8 23,14 27,19 5,5 9,11 13,20 2,3 7,5 14,5zm366 -82c50,0 93,13 129,39 18,13 32,29 39,47 7,17 11,42 11,73l-1 65c0,45 4,74 10,88 3,6 6,10 9,12 3,2 9,3 19,5 9,1 13,8 13,18 0,14 -5,29 -16,44 -12,15 -26,28 -44,38 -22,13 -45,20 -69,20 -30,0 -55,-11 -72,-32 -6,-8 -12,-11 -18,-11 -5,0 -13,3 -23,11 -29,21 -62,32 -99,32 -38,0 -69,-9 -93,-25 -15,-11 -28,-25 -37,-42 -9,-18 -13,-36 -13,-55 0,-30 12,-57 36,-80 39,-37 96,-56 172,-56 17,0 28,-2 32,-5 5,-3 7,-11 7,-23 0,-31 -4,-54 -10,-68 -6,-13 -17,-21 -31,-21 -9,0 -17,3 -24,8 -7,6 -15,15 -26,29 -26,37 -53,56 -81,56 -14,0 -26,-4 -35,-13 -9,-8 -14,-19 -14,-33 0,-14 6,-28 17,-42 12,-14 27,-26 46,-37 53,-28 108,-42 166,-42zm-30 254c-13,0 -24,5 -33,15 -10,11 -14,23 -14,38 0,14 3,25 10,34 6,9 15,13 26,13 24,0 35,-20 35,-59 0,-16 -1,-27 -5,-33 -3,-5 -9,-8 -19,-8z"/>
    <path class="fil3" d="M1769 1167l0 -235 171 0 0 41 -123 0 0 50 112 0 0 40 -112 0 0 60 129 0 0 44 -177 0zm213 0l0 -235 51 0 95 161 0 -161 48 0 0 235 -50 0 -96 -162 0 162 -48 0zm291 0l0 -193 -69 0 0 -42 187 0 0 42 -70 0 0 193 -48 0zm145 0l0 -235 171 0 0 41 -123 0 0 50 112 0 0 40 -112 0 0 60 129 0 0 44 -177 0zm262 -132l57 0c12,0 21,-3 27,-8 6,-5 8,-13 8,-23 0,-11 -2,-18 -8,-24 -6,-5 -14,-7 -25,-7l-59 0 0 62zm-49 132l0 -235 114 0c26,0 45,5 57,16 13,11 19,28 19,51 0,14 -3,26 -9,35 -6,10 -15,16 -26,20 10,4 17,9 21,17 5,7 7,19 8,34l1 28c0,0 0,1 0,1 0,14 3,23 9,26l0 7 -53 0c-2,-4 -3,-8 -4,-12 -1,-5 -1,-11 -1,-18l-1 -25c-1,-14 -3,-24 -8,-29 -5,-5 -14,-8 -27,-8l-51 0 0 92 -49 0zm282 -126l47 0c12,0 22,-3 27,-8 6,-6 9,-14 9,-26 0,-11 -3,-20 -8,-26 -6,-5 -15,-8 -26,-8l-49 0 0 68zm0 42l0 84 -49 0 0 -235 105 0c25,0 43,6 56,19 13,13 19,32 19,56 0,25 -6,43 -19,56 -12,14 -30,20 -53,20l-59 0zm217 -48l57 0c13,0 22,-3 27,-8 6,-5 9,-13 9,-23 0,-11 -3,-18 -8,-24 -6,-5 -14,-7 -26,-7l-59 0 0 62zm-48 132l0 -235 114 0c26,0 45,5 57,16 12,11 18,28 18,51 0,14 -3,26 -9,35 -6,10 -14,16 -26,20 11,4 18,9 22,17 4,7 7,19 8,34l1 28c0,0 0,1 0,1 0,14 3,23 9,26l0 7 -53 0c-2,-4 -3,-8 -4,-12 -1,-5 -2,-11 -2,-18l0 -25c-1,-14 -4,-24 -9,-29 -5,-5 -13,-8 -26,-8l-52 0 0 92 -48 0zm235 0l0 -235 48 0 0 235 -48 0zm88 -73l47 0c2,13 7,23 16,29 9,6 21,9 38,9 14,0 24,-2 32,-7 7,-5 10,-13 10,-22 0,-15 -20,-26 -61,-36l-2 0c-1,0 -2,-1 -5,-1 -21,-5 -37,-10 -46,-16 -9,-6 -15,-13 -19,-22 -5,-9 -7,-19 -7,-32 0,-23 8,-40 23,-52 16,-12 38,-18 68,-18 27,0 49,6 64,19 15,13 24,31 24,55l-46 0c-1,-11 -5,-20 -13,-26 -8,-6 -19,-9 -34,-9 -12,0 -22,2 -29,7 -7,5 -10,12 -10,22 0,12 13,21 40,27 7,2 13,3 17,4 17,5 29,8 36,11 7,2 14,5 19,8 9,5 17,12 21,21 5,9 8,19 8,31 0,25 -9,44 -25,57 -17,14 -40,20 -70,20 -29,0 -52,-7 -69,-20 -17,-14 -26,-34 -27,-59zm228 73l0 -235 171 0 0 41 -123 0 0 50 112 0 0 40 -112 0 0 60 128 0 0 44 -176 0zm202 -73l48 0c2,13 7,23 16,29 9,6 21,9 38,9 14,0 24,-2 31,-7 7,-5 11,-13 11,-22 0,-15 -20,-26 -61,-36l-2 0c-1,0 -2,-1 -5,-1 -22,-5 -37,-10 -47,-16 -8,-6 -14,-13 -18,-22 -5,-9 -7,-19 -7,-32 0,-23 8,-40 23,-52 16,-12 38,-18 67,-18 28,0 49,6 65,19 15,13 23,31 24,55l-46 0c-1,-11 -5,-20 -13,-26 -8,-6 -19,-9 -34,-9 -12,0 -22,2 -29,7 -7,5 -10,12 -10,22 0,12 13,21 40,27 7,2 12,3 17,4 17,5 29,8 36,11 7,2 13,5 19,8 9,5 16,12 21,21 5,9 7,19 7,31 0,25 -8,44 -24,57 -17,14 -40,20 -70,20 -30,0 -53,-7 -70,-20 -16,-14 -25,-34 -27,-59z"/>
    <line class="fil4 str0" x1="1764" y1="1227" x2="4032" y2= "1227" />
   </g>
  </g>
 </g>
</svg>
