<?xml version="1.0" encoding="UTF-8"?>
<!DOCTYPE svg PUBLIC "-//W3C//DTD SVG 1.1//EN" "http://www.w3.org/Graphics/SVG/1.1/DTD/svg11.dtd">
<!-- Creator: CorelDRAW X8 -->
<svg xmlns="http://www.w3.org/2000/svg" xml:space="preserve" width="1500px" height="1500px" version="1.1" style="shape-rendering:geometricPrecision; text-rendering:geometricPrecision; image-rendering:optimizeQuality; fill-rule:evenodd; clip-rule:evenodd"
viewBox="0 0 1500 1500"
 xmlns:xlink="http://www.w3.org/1999/xlink">
 <defs>
  <style type="text/css">
   <![CDATA[
    .fil5 {fill:none}
    .fil4 {fill:#103C68;fill-rule:nonzero}
    .fil1 {fill:#1B5083;fill-rule:nonzero}
    .fil3 {fill:#55ADE2;fill-rule:nonzero}
    .fil6 {fill:#56AEE3;fill-rule:nonzero}
    .fil2 {fill:#8BAC1B;fill-rule:nonzero}
    .fil0 {fill:#A0C527;fill-rule:nonzero}
   ]]>
  </style>
 </defs>
 <g id="Layer_x0020_1">
  <metadata id="CorelCorpID_0Corel-Layer"/>
  <g id="_2205679035664">
   <path class="fil0" d="M1134 43c118,186 236,371 354,557 -91,0 -183,0 -275,0 -32,-1 -61,-19 -87,-37 -59,-51 -105,-115 -148,-180 45,-124 90,-248 136,-371 7,9 14,19 20,29l0 2z"/>
   <path class="fil1" d="M599 420c48,-136 97,-272 145,-408 124,0 247,0 370,0l-369 1009 0 -1c0,-1 -2,-4 -3,-5 -75,-121 -151,-240 -225,-361l82 -234z"/>
   <path class="fil2" d="M1114 12l12 551c-59,-51 -105,-115 -148,-180 45,-124 90,-248 136,-371z"/>
   <path class="fil3" d="M12 509c107,1 214,1 321,1 30,0 59,8 84,23 46,27 76,74 100,121 75,122 152,244 228,366 -122,0 -244,0 -365,0 -124,-170 -246,-340 -368,-511z"/>
   <polygon class="fil4" points="599,420 745,1021 517,654 "/>
   <polygon class="fil5" points="0,0 1500,0 1500,1500 0,1500 "/>
   <g>
    <path class="fil1" d="M142 1414c0,-2 0,-4 -1,-6 -1,-1 -2,-3 -3,-4 -1,-2 -3,-3 -6,-4 -14,-4 -28,-8 -42,-12 -15,-4 -28,-9 -41,-13 -10,-4 -19,-10 -26,-18 -7,-8 -11,-18 -11,-30l0 -26c0,-7 1,-14 4,-20 3,-6 6,-12 11,-16 4,-5 10,-9 16,-11 6,-3 13,-5 20,-5l79 0c7,0 14,2 20,5 7,2 12,6 17,11 5,4 8,10 11,16 3,6 4,13 4,20l0 13 -54 10 0 -13c0,-3 -1,-7 -4,-9 -3,-2 -6,-4 -9,-4l-45 0c-3,0 -7,2 -10,4 -3,2 -4,6 -4,9l0 7c0,3 1,6 3,8 2,3 4,4 7,5 5,2 11,4 17,6 7,2 15,4 22,6 8,3 16,5 23,7 8,2 15,5 21,7 12,4 21,10 28,18 6,8 9,18 9,30l0 27c0,7 -2,14 -4,20 -3,6 -7,12 -12,16 -4,5 -10,9 -16,12 -7,2 -13,4 -21,4l-82 0c-7,0 -14,-2 -20,-4 -7,-3 -12,-7 -17,-12 -4,-4 -8,-10 -11,-16 -2,-6 -3,-13 -3,-20l0 -14 54 -10 0 14c0,3 1,6 4,9 2,2 6,4 9,4l50 0c3,0 6,-2 9,-4 3,-3 4,-6 4,-9l0 -8zm129 70c-7,0 -14,-2 -20,-4 -7,-3 -12,-7 -17,-12 -4,-4 -8,-10 -11,-16 -2,-6 -4,-13 -4,-20l0 -131c0,-7 2,-14 4,-20 3,-6 7,-12 11,-16 5,-5 10,-9 17,-11 6,-3 13,-5 20,-5l94 0c7,0 14,2 20,5 7,2 12,6 17,11 4,4 8,10 11,16 3,6 4,13 4,20l0 131c0,7 -1,14 -4,20 -3,6 -7,12 -11,16 -5,5 -10,9 -17,12 -6,2 -13,4 -20,4l-94 0zm89 -170c0,-3 -1,-7 -4,-9 -2,-2 -6,-4 -9,-4l-57 0c-4,0 -7,2 -10,4 -2,2 -4,6 -4,9l0 105c0,3 2,6 4,9 3,2 6,4 10,4l57 0c3,0 7,-2 9,-4 3,-3 4,-6 4,-9l0 -105zm220 -110l-46 0c-4,0 -7,1 -9,4 -3,2 -4,5 -4,9l0 32 56 0 -6 48 -50 0 0 187 -57 0 0 -187 -33 0 0 -48 33 0 0 -43c0,-7 1,-14 4,-20 2,-6 6,-11 11,-16 4,-5 10,-8 16,-11 6,-3 13,-4 20,-4l65 0 0 49zm156 280l-62 0c-7,0 -14,-2 -20,-4 -7,-3 -12,-7 -17,-12 -4,-4 -8,-10 -11,-16 -2,-6 -4,-13 -4,-20l0 -133 -35 0 0 -50 35 0 0 -54 57 -10 0 64 64 0 -10 50 -54 0 0 122c0,4 2,7 4,9 3,3 6,4 10,4l43 0 0 50z"/>
    <path class="fil6" d="M803 1484l0 -341 -36 0 0 341 36 0zm93 -293c0,-13 -10,-23 -23,-23 -13,0 -23,10 -23,23 0,13 10,23 23,23 13,0 23,-10 23,-23zm-5 293l0 -228 -36 0 0 228 36 0zm60 -130l0 130 35 0 0 -144c0,0 23,-52 60,-52 25,0 39,17 39,38l0 158 34 0 0 -163c0,-42 -27,-71 -65,-71 -46,0 -79,48 -79,48 -9,-17 -17,-29 -35,-45l-26 26c26,20 37,43 37,75zm241 130l0 -114 118 118 25 -24 -101 -101 88 -88 -24 -24 -106 107 0 -215 -35 0 0 341 35 0zm210 -105l21 8c17,8 31,15 31,35 0,20 -18,33 -40,33 -16,0 -32,-9 -46,-27l-23 28c17,20 40,32 69,32 38,0 74,-30 74,-69 0,-37 -24,-52 -47,-61l-19 -9c-18,-7 -35,-14 -35,-33 0,-20 19,-31 35,-31 16,0 24,3 39,18l22 -27c-9,-12 -31,-25 -61,-25 -37,0 -69,30 -69,65 0,32 16,49 49,63z"/>
   </g>
  </g>
 </g>
</svg>
